<svg xmlns="http://www.w3.org/2000/svg" viewBox="0 0 800 500">
  <defs>
    <linearGradient id="sky" x1="0%" y1="0%" x2="0%" y2="100%">
      <stop offset="0%" style="stop-color:#1a237e"/>
      <stop offset="100%" style="stop-color:#64b5f6"/>
    </linearGradient>
    <linearGradient id="grass" x1="0%" y1="0%" x2="0%" y2="100%">
      <stop offset="0%" style="stop-color:#4caf50"/>
      <stop offset="100%" style="stop-color:#2e7d32"/>
    </linearGradient>
    <linearGradient id="bd" x1="0%" y1="0%" x2="0%" y2="100%">
      <stop offset="0%" style="stop-color:#fff"/>
      <stop offset="100%" style="stop-color:#e0e0e0"/>
    </linearGradient>
  </defs>
  <rect width="800" height="500" fill="url(#sky)"/>
  <rect y="350" width="800" height="150" fill="url(#grass)"/>
  <circle cx="650" cy="80" r="40" fill="#fff" opacity="0.9"/>
  <circle cx="670" cy="70" r="8" fill="#fff" opacity="0.3"/>
  <rect x="200" y="180" width="400" height="220" rx="4" fill="url(#bd)" stroke="#ccc" stroke-width="1"/>
  <rect x="250" y="150" width="40" height="40" fill="#f57c00" rx="4"/>
  <rect x="510" y="150" width="40" height="40" fill="#f57c00" rx="4"/>
  <rect x="375" y="130" width="50" height="60" fill="#1a237e" rx="2"/>
  <text x="388" y="165" fill="#fff" font-size="12" font-weight="bold" text-anchor="middle">MTIET</text>
  <rect x="230" y="220" width="80" height="60" rx="2" fill="#e3f2fd" stroke="#90caf9" stroke-width="1"/>
  <rect x="230" y="220" width="80" height="8" fill="#1565c0" rx="2"/>
  <rect x="330" y="220" width="80" height="60" rx="2" fill="#e3f2fd" stroke="#90caf9" stroke-width="1"/>
  <rect x="330" y="220" width="80" height="8" fill="#1565c0" rx="2"/>
  <rect x="430" y="220" width="80" height="60" rx="2" fill="#e3f2fd" stroke="#90caf9" stroke-width="1"/>
  <rect x="430" y="220" width="80" height="8" fill="#1565c0" rx="2"/>
  <rect x="530" y="220" width="60" height="60" rx="2" fill="#e3f2fd" stroke="#90caf9" stroke-width="1"/>
  <rect x="530" y="220" width="60" height="8" fill="#1565c0" rx="2"/>
  <rect x="220" y="295" width="370" height="50" rx="2" fill="#f5f5f5" stroke="#e0e0e0" stroke-width="1"/>
  <rect x="220" y="295" width="370" height="8" fill="#f57c00" rx="2"/>
  <text x="405" y="323" fill="#666" font-size="11" text-anchor="middle">Mother Theresa Institutions Engineering College</text>
  <rect x="300" y="360" width="200" height="12" rx="6" fill="#a5d6a7"/>
  <rect x="300" y="360" width="140" height="12" rx="6" fill="#4caf50"/>
  <rect x="250" y="385" width="300" height="8" rx="4" fill="#bbb"/>
  <rect x="250" y="385" width="200" height="8" rx="4" fill="#888"/>
  <rect x="100" y="330" width="80" height="70" rx="4" fill="#fff" stroke="#ccc"/>
  <rect x="100" y="330" width="80" height="12" fill="#1a237e" rx="4"/>
  <text x="115" y="380" fill="#1a237e" font-size="9" font-weight="bold">LIBRARY</text>
  <rect x="620" y="330" width="80" height="70" rx="4" fill="#fff" stroke="#ccc"/>
  <rect x="620" y="330" width="80" height="12" fill="#e65100" rx="4"/>
  <text x="640" y="380" fill="#e65100" font-size="9" font-weight="bold">SPORTS</text>
  <circle cx="660" cy="420" r="15" fill="#fff" stroke="#ccc" stroke-width="1"/>
  <circle cx="660" cy="420" r="5" fill="#e65100"/>
  <line x1="665" y1="410" x2="700" y2="390" stroke="#fff" stroke-width="1"/>
  <rect x="695" y="385" width="6" height="10" fill="#e65100" rx="1"/>
  <line x1="140" y1="415" x2="100" y2="440" stroke="#fff" stroke-width="2"/>
  <circle cx="95" cy="445" r="4" fill="#1a237e"/>
</svg>