<svg xmlns="http://www.w3.org/2000/svg" viewBox="0 0 400 300">
  <defs><linearGradient id="bg1" x1="0%" y1="0%" x2="0%" y2="100%"><stop offset="0%" style="stop-color:#1a237e"/><stop offset="100%" style="stop-color:#42a5f5"/></linearGradient></defs>
  <rect width="400" height="300" fill="url(#bg1)" rx="12"/>
  <rect x="80" y="80" width="240" height="160" rx="6" fill="#fff" opacity="0.95"/>
  <rect x="80" y="80" width="240" height="12" fill="#f57c00" rx="3"/>
  <rect x="100" y="105" width="60" height="50" rx="3" fill="#e3f2fd" stroke="#90caf9" stroke-width="1"/>
  <rect x="100" y="105" width="60" height="6" fill="#1565c0" rx="2"/>
  <rect x="175" y="105" width="60" height="50" rx="3" fill="#e3f2fd" stroke="#90caf9" stroke-width="1"/>
  <rect x="175" y="105" width="60" height="6" fill="#1565c0" rx="2"/>
  <rect x="250" y="105" width="50" height="50" rx="3" fill="#e3f2fd" stroke="#90caf9" stroke-width="1"/>
  <rect x="250" y="105" width="50" height="6" fill="#1565c0" rx="2"/>
  <rect x="120" y="170" width="160" height="35" rx="4" fill="#f5f5f5" stroke="#e0e0e0" stroke-width="1"/>
  <rect x="120" y="170" width="160" height="6" fill="#f57c00" rx="2"/>
  <text x="200" y="192" fill="#666" font-size="9" text-anchor="middle">Engineering College</text>
  <rect x="140" y="215" width="120" height="8" rx="4" fill="#bbb"/>
  <rect x="140" y="215" width="80" height="8" rx="4" fill="#4caf50"/>
  <text x="200" y="280" fill="#fff" font-size="14" font-weight="bold" text-anchor="middle">MTIET - Engineering</text>
  <text x="200" y="296" fill="rgba(255,255,255,0.7)" font-size="9" text-anchor="middle">B.Tech | M.Tech | Diploma</text>
</svg>